<?xml version="1.0" encoding="UTF-8" standalone="no"?>
<svg
   xmlns:dc="http://purl.org/dc/elements/1.1/"
   xmlns:cc="http://creativecommons.org/ns#"
   xmlns:rdf="http://www.w3.org/1999/02/22-rdf-syntax-ns#"
   xmlns:svg="http://www.w3.org/2000/svg"
   xmlns="http://www.w3.org/2000/svg"
   viewBox="0 0 432.58667 486.66666"
   height="486.66666"
   width="432.58667"
   xml:space="preserve"
   id="svg2"
   version="1.1"><metadata
     id="metadata8"><rdf:RDF><cc:Work
         rdf:about=""><dc:format>image/svg+xml</dc:format><dc:type
           rdf:resource="http://purl.org/dc/dcmitype/StillImage" /></cc:Work></rdf:RDF></metadata><defs
     id="defs6" /><g
     transform="matrix(1.3333333,0,0,-1.3333333,0,486.66667)"
     id="g10"><g
       transform="scale(0.1)"
       id="g12"><path
         id="path14"
         style="fill:#aab9cc;fill-opacity:1;fill-rule:nonzero;stroke:none"
         d="m 3244.28,2576.9 c -0.02,61.38 -13.14,115.61 -39.65,162.15 -26.05,45.77 -65.07,84.12 -117.39,114.47 -431.93,249.28 -864.28,497.82 -1296.05,747.36 -116.41,67.26 -229.28,64.81 -344.83,-3.42 C 1274.45,3495.96 413.703,3002.35 157.215,2853.65 51.5938,2792.44 0.191406,2698.77 0.164063,2577.01 0,2075.67 0.164063,1574.35 0,1073 0.0234375,1012.98 12.5859,959.801 37.9336,913.941 63.9883,866.801 103.543,827.379 157.078,796.359 413.578,647.66 1274.43,154.078 1446.31,52.5703 c 115.6,-68.2695 228.47,-70.7109 344.92,-3.4219 431.79,249.5506 864.16,498.0706 1296.15,747.3636 53.53,31.008 93.09,70.449 119.15,117.558 25.31,45.852 37.89,99.03 37.92,159.07 0,0 0,1002.4 -0.17,1503.76" /><path
         id="path16"
         style="fill:#7a8799;fill-opacity:1;fill-rule:nonzero;stroke:none"
         d="m 1788.26,3597.61 c -116.22,67.09 -228.9,64.64 -344.25,-3.41 C 1272.37,3492.97 413.031,3000.64 156.965,2852.32 51.5039,2791.27 0.191406,2697.84 0.164063,2576.41 0,2076.37 0.164063,1576.34 0,1076.29 0.0234375,1016.42 12.5586,963.379 37.8672,917.66 63.8867,870.629 103.379,831.309 156.824,800.379 215.488,766.398 305.852,714.352 412.313,653.109 L 2783.44,3024.24 c -331.77,191.04 -663.63,381.93 -995.18,573.37" /><path
         id="path18"
         style="fill:#ffffff;fill-opacity:1;fill-rule:nonzero;stroke:none"
         d="m 1957.52,2053.53 504.9,-3.56 c 0,210.37 -212.94,725.55 -823.44,725.55 -388.97,0 -911.882,-247.29 -911.882,-958.25 0,-710.95 512.612,-942.79 911.882,-942.79 646.57,0 801.1,447.4 801.1,700.24 l -481.69,27.54 c 0,0 12.89,-292.44 -321.99,-292.44 -309.1,0 -360.69,378.66 -360.69,507.45 0,195.77 69.62,510.04 360.69,510.04 291.09,0 321.12,-273.78 321.12,-273.78" /></g></g></svg>