<?xml version="1.0" encoding="UTF-8" standalone="no"?>
<svg
   xmlns:dc="http://purl.org/dc/elements/1.1/"
   xmlns:cc="http://creativecommons.org/ns#"
   xmlns:rdf="http://www.w3.org/1999/02/22-rdf-syntax-ns#"
   xmlns:svg="http://www.w3.org/2000/svg"
   xmlns="http://www.w3.org/2000/svg"
   viewBox="0 0 486.66666 486.66666"
   height="486.66666"
   width="486.66666"
   xml:space="preserve"
   id="svg2"
   version="1.1"><metadata
     id="metadata8"><rdf:RDF><cc:Work
         rdf:about=""><dc:format>image/svg+xml</dc:format><dc:type
           rdf:resource="http://purl.org/dc/dcmitype/StillImage" /></cc:Work></rdf:RDF></metadata><defs
     id="defs6" /><g
     transform="matrix(1.3333333,0,0,-1.3333333,0,486.66667)"
     id="g10"><g
       transform="scale(0.1)"
       id="g12"><path
         id="path14"
         style="fill:#f1e10e;fill-opacity:1;fill-rule:nonzero;stroke:none"
         d="M 0,0 H 3650 V 3650 H 0 Z" /><path
         id="path16"
         style="fill:#100f0d;fill-opacity:1;fill-rule:nonzero;stroke:none"
         d="m 959.719,599.789 279.321,169.043 c 53.89,-95.543 102.91,-176.383 220.49,-176.383 112.71,0 183.77,44.09 183.77,215.582 V 1974.3 h 343.01 V 803.191 c 0,-355.269 -208.25,-516.98 -512.07,-516.98 -274.4,0 -433.68,142.109 -514.529,313.609" /><path
         id="path18"
         style="fill:#100f0d;fill-opacity:1;fill-rule:nonzero;stroke:none"
         d="m 2172.62,636.551 279.29,161.699 c 73.52,-120.059 169.07,-208.262 338.12,-208.262 142.13,0 232.76,71.063 232.76,169.071 0,117.601 -93.1,159.261 -249.91,227.839 l -85.73,36.772 c -247.48,105.34 -411.64,237.64 -411.64,516.96 0,257.26 196,453.28 502.28,453.28 218.06,0 374.87,-75.96 487.56,-274.42 l -267.07,-171.5 c -58.8,105.34 -122.49,146.99 -220.48,146.99 -100.46,0 -164.17,-63.7 -164.17,-146.99 0,-102.91 63.71,-144.57 210.7,-208.28 l 85.75,-36.75 C 3201.64,1178 3365.8,1050.61 3365.8,763.961 c 0,-308.742 -242.55,-477.781 -568.41,-477.781 -318.51,0 -524.33,151.902 -624.77,350.371" /></g></g></svg>