<?xml version="1.0" encoding="UTF-8" standalone="no"?>
<svg
   xmlns:dc="http://purl.org/dc/elements/1.1/"
   xmlns:cc="http://creativecommons.org/ns#"
   xmlns:rdf="http://www.w3.org/1999/02/22-rdf-syntax-ns#"
   xmlns:svg="http://www.w3.org/2000/svg"
   xmlns="http://www.w3.org/2000/svg"
   viewBox="0 0 265.23999 493.33334"
   height="493.33334"
   width="265.23999"
   xml:space="preserve"
   id="svg2"
   version="1.1"><metadata
     id="metadata8"><rdf:RDF><cc:Work
         rdf:about=""><dc:format>image/svg+xml</dc:format><dc:type
           rdf:resource="http://purl.org/dc/dcmitype/StillImage" /></cc:Work></rdf:RDF></metadata><defs
     id="defs6" /><g
     transform="matrix(1.3333333,0,0,-1.3333333,0,493.33333)"
     id="g10"><g
       transform="scale(0.1)"
       id="g12"><path
         id="path14"
         style="fill:#3471c1;fill-opacity:1;fill-rule:nonzero;stroke:none"
         d="m 657.695,1737.36 c 0,0 -96.925,-56.42 69.063,-75.46 201.117,-22.96 303.892,-19.65 525.452,22.23 0,0 58.37,-36.52 139.75,-68.14 -496.855,-212.87 -1124.483,12.33 -734.265,121.37 v 0" /><path
         id="path16"
         style="fill:#3471c1;fill-opacity:1;fill-rule:nonzero;stroke:none"
         d="m 596.953,2015.19 c 0,0 -108.73,-80.5 57.383,-97.67 214.855,-22.18 384.464,-24 678.134,32.51 0,0 40.53,-41.16 104.34,-63.65 -600.63,-175.69 -1269.611,-13.83 -839.857,128.81 v 0" /><path
         id="path18"
         style="fill:#ea232d;fill-opacity:1;fill-rule:nonzero;stroke:none"
         d="m 1108.75,2486.54 c 122.49,-141 -32.12,-267.78 -32.12,-267.78 0,0 310.84,160.44 168.12,361.44 -133.35,187.36 -235.58,280.43 317.88,601.41 0.01,0 -868.802,-216.94 -453.88,-695.07 v 0" /><path
         id="path20"
         style="fill:#3471c1;fill-opacity:1;fill-rule:nonzero;stroke:none"
         d="m 1765.87,1531.82 c 0,0 71.75,-59.15 -79.03,-104.89 -286.72,-86.84 -1193.578,-113.04 -1445.461,-3.47 -90.484,39.41 79.277,94.03 132.687,105.57 55.692,12.05 87.493,9.85 87.493,9.85 -100.704,70.91 -650.872,-139.27 -279.426,-199.55 1012.947,-164.19 1846.447,73.95 1583.737,192.49 v 0" /><path
         id="path22"
         style="fill:#3471c1;fill-opacity:1;fill-rule:nonzero;stroke:none"
         d="m 704.344,2303.09 c 0,0 -461.227,-109.58 -163.324,-149.41 125.824,-16.84 376.5,-12.96 610.17,6.64 190.91,16.03 382.5,50.29 382.5,50.29 0,0 -67.26,-28.85 -115.97,-62.09 -468.458,-123.21 -1373.2747,-65.83 -1112.751,60.14 220.222,106.54 399.375,94.43 399.375,94.43 v 0" /><path
         id="path24"
         style="fill:#3471c1;fill-opacity:1;fill-rule:nonzero;stroke:none"
         d="m 1531.78,1840.62 c 476.18,247.38 255.99,485.13 102.31,453.1 -37.58,-7.84 -54.44,-14.63 -54.44,-14.63 0,0 14,21.93 40.66,31.37 304.03,106.84 537.8,-315.21 -98.04,-482.36 -0.01,0 7.31,6.63 9.51,12.52 v 0" /><path
         id="path26"
         style="fill:#ea232d;fill-opacity:1;fill-rule:nonzero;stroke:none"
         d="m 1244.75,3700 c 0,0 263.66,-263.8 -250.145,-669.35 -412.035,-325.45 -93.945,-510.94 -0.144,-722.97 -240.539,217 -416.969,408.05 -298.625,585.84 173.777,260.94 655.274,387.49 548.914,806.48 v 0" /><path
         id="path28"
         style="fill:#3471c1;fill-opacity:1;fill-rule:nonzero;stroke:none"
         d="m 751.16,1170.08 c 456.97,-29.22 1158.9,16.26 1175.51,232.51 0,0 -31.93,-81.98 -377.7,-147.02 -390.07,-73.44 -871.286,-64.89 -1156.591,-17.78 0.004,0 58.449,-48.38 358.781,-67.71 v 0" /><path
         id="path30"
         style="fill:#ea232d;fill-opacity:1;fill-rule:nonzero;stroke:none"
         d="m 1980.41,780.289 h -0.18 l -13.82,-36.918 h -6.35 l -13.74,36.918 h -0.14 v -36.918 h -9.19 v 46.668 h 13.48 l 12.71,-33.027 12.75,33.027 h 13.41 v -46.668 h -8.93 z m -74.84,1.973 h -13.92 v 7.777 h 37.48 v -7.777 h -13.86 v -38.891 h -9.7 v 38.891" /><path
         id="path32"
         style="fill:#ea232d;fill-opacity:1;fill-rule:nonzero;stroke:none"
         d="m 795.238,209.629 v 415.422 c 0,106.187 -60.558,176.258 -206.5,176.258 -85.152,0 -159.816,-21.059 -220.508,-47.86 l 17.465,-73.578 c 47.801,17.551 109.621,33.859 170.313,33.859 84.09,0 120.273,-33.859 120.273,-103.89 V 557.309 H 634.258 C 430,557.309 337.844,478.102 337.844,358.93 c 0,-102.649 60.742,-161.02 175.078,-161.02 73.476,0 128.394,30.34 179.656,74.75 l 9.336,-63.039 h 93.324 z M 676.281,343.82 c -43.093,-37.359 -88.664,-58.371 -129.57,-58.371 -58.262,0 -89.863,35.012 -89.863,91.039 0,60.653 33.836,105.043 169.336,105.043 h 50.097 V 343.82" /><path
         id="path34"
         style="fill:#ea232d;fill-opacity:1;fill-rule:nonzero;stroke:none"
         d="m 1192.22,209.629 h -148.34 l -178.567,581.07 h 129.554 l 110.843,-357.058 24.65,-107.282 c 55.94,155.172 95.62,312.711 115.46,464.34 h 126.01 c -33.7,-191.328 -94.49,-401.367 -179.61,-581.07 v 0" /><path
         id="path36"
         style="fill:#ea232d;fill-opacity:1;fill-rule:nonzero;stroke:none"
         d="m 1880.45,209.629 v 415.422 c 0,106.187 -60.74,176.258 -206.54,176.258 -85.27,0 -159.91,-21.059 -220.61,-47.86 l 17.5,-73.578 c 47.83,17.551 109.73,33.859 170.41,33.859 83.99,0 120.24,-33.859 120.24,-103.89 v -52.531 h -42.03 c -204.3,0 -296.43,-79.207 -296.43,-198.379 0,-102.649 60.66,-161.02 174.99,-161.02 73.54,0 128.35,30.34 179.75,74.75 l 9.4,-63.039 h 93.32 z m -119,134.191 c -43.23,-37.359 -88.81,-58.371 -129.61,-58.371 -58.28,0 -89.88,35.012 -89.88,91.039 0,60.653 33.9,105.043 169.28,105.043 h 50.21 V 343.82" /><path
         id="path38"
         style="fill:#ea232d;fill-opacity:1;fill-rule:nonzero;stroke:none"
         d="M 207.391,110.871 C 173.496,61.3516 118.688,22.1211 58.7344,0 L 0,69.1914 c 45.6719,23.4492 84.7891,61.2576 102.992,96.4566 15.696,31.383 22.231,71.711 22.231,168.262 v 663.469 h 126.422 v -654.32 c 0,-129.129 -10.305,-181.34 -44.254,-232.188 v 0" /></g></g></svg>