<!--?xml version="1.0" encoding="utf-8"?-->
<!-- Generator: Adobe Illustrator 18.1.1, SVG Export Plug-In . SVG Version: 6.00 Build 0)  -->

<svg version="1.1" id="_x32_" xmlns="http://www.w3.org/2000/svg" xmlns:xlink="http://www.w3.org/1999/xlink" x="0px" y="0px" viewBox="0 0 512 512" style="width: 256px; height: 256px; opacity: 1;" xml:space="preserve">
<style type="text/css">
	.st0{fill:#4B4B4B;}
</style>
<g>
	<path class="st0" d="M473.996,133.518L265.864,258.362c-2.495,1.499-4.02,4.19-4.02,7.106V512
		c6.51-0.799,12.889-2.931,18.714-6.428l174.057-104.402c14.378-8.628,23.178-24.173,23.178-40.939V152.145
		C477.794,145.634,476.452,139.32,473.996,133.518z M319.108,256.027c12.052-6.571,21.826-2.118,21.826,9.931
		c0,12.056-9.773,27.157-21.826,33.728c-12.06,6.57-21.83,2.125-21.83-9.932C297.279,277.698,307.048,262.597,319.108,256.027z
		 M319.108,441.831c-12.06,6.579-21.83,2.125-21.83-9.924c0-12.056,9.769-27.157,21.83-33.728
		c12.052-6.57,21.826-2.125,21.826,9.932S331.161,435.268,319.108,441.831z M320.412,370.758c-12.056,6.571-21.83,2.125-21.83-9.931
		s9.773-27.15,21.83-33.72c12.056-6.579,21.826-2.125,21.826,9.924C342.238,349.087,332.468,364.188,320.412,370.758z
		 M425.198,379.507c-12.057,6.571-21.822,2.117-21.822-9.939c0-12.049,9.765-27.149,21.822-33.72
		c12.056-6.571,21.83-2.125,21.83,9.932S437.254,372.929,425.198,379.507z M425.198,308.427c-12.057,6.57-21.822,2.125-21.822-9.931
		c0-12.057,9.765-27.15,21.822-33.72c12.056-6.579,21.83-2.125,21.83,9.932C447.027,286.755,437.254,301.856,425.198,308.427z
		 M425.198,237.354c-12.057,6.571-21.822,2.125-21.822-9.932c0-12.056,9.765-27.157,21.822-33.728
		c12.056-6.57,21.83-2.125,21.83,9.932C447.027,215.682,437.254,230.783,425.198,237.354z" style="fill: rgb(75, 75, 75);"></path>
	<path class="st0" d="M454.615,111.198L280.558,6.797C272.996,2.261,264.504,0,256,0c-8.504,0-16.996,2.261-24.558,6.797
		L57.389,111.198c-5.346,3.21-9.916,7.37-13.552,12.192l207.906,124.709c2.619,1.575,5.896,1.575,8.518,0L468.164,123.39
		C464.532,118.568,459.958,114.408,454.615,111.198z M157.71,130.308c-10.96,7.618-28.457,7.422-39.078-0.444
		c-10.62-7.867-10.346-20.413,0.614-28.039c10.964-7.618,28.461-7.422,39.085,0.444C168.952,110.128,168.674,122.682,157.71,130.308
		z M273.15,207.13c-10.964,7.619-28.461,7.423-39.082-0.444c-10.625-7.867-10.346-20.421,0.614-28.039
		c10.964-7.625,28.46-7.422,39.081,0.445C284.39,186.95,284.11,199.504,273.15,207.13z M274.16,131.016
		c-10.591,7.362-27.496,7.174-37.764-0.43c-10.259-7.595-9.992-19.727,0.6-27.082c10.59-7.37,27.492-7.174,37.759,0.422
		C285.018,111.53,284.751,123.654,274.16,131.016z M276.474,55.874c-10.964,7.618-28.457,7.422-39.082-0.444
		c-10.621-7.86-10.346-20.421,0.614-28.039c10.964-7.618,28.465-7.422,39.086,0.437C287.712,35.702,287.434,48.248,276.474,55.874z
		 M391.906,132.697c-10.956,7.618-28.453,7.422-39.078-0.446c-10.621-7.859-10.346-20.42,0.618-28.038
		c10.956-7.618,28.453-7.423,39.078,0.444C403.149,112.524,402.87,125.071,391.906,132.697z" style="fill: rgb(75, 75, 75);"></path>
	<path class="st0" d="M34.206,152.145v208.086c0,16.766,8.801,32.311,23.182,40.939l174.054,104.402
		c5.829,3.496,12.204,5.629,18.714,6.428V260.774L38.004,133.518C35.544,139.32,34.206,145.634,34.206,152.145z M197.714,392.506
		c12.056,6.57,21.826,21.672,21.826,33.728c0,12.056-9.77,16.502-21.826,9.924c-12.053-6.563-21.826-21.664-21.826-33.72
		S185.662,385.935,197.714,392.506z M136.781,298.36c12.052,6.571,21.826,21.672,21.826,33.72c0,12.056-9.774,16.502-21.826,9.931
		c-12.06-6.57-21.83-21.672-21.83-33.728C114.951,296.235,124.72,291.782,136.781,298.36z M75.843,204.214
		c12.056,6.563,21.826,21.664,21.826,33.72c0,12.056-9.769,16.502-21.826,9.931c-12.053-6.57-21.826-21.671-21.826-33.727
		C54.017,202.088,63.79,197.636,75.843,204.214z" style="fill: rgb(75, 75, 75);"></path>
</g>
</svg>
