<!--?xml version="1.0" encoding="utf-8"?-->
<!-- Generator: Adobe Illustrator 18.1.1, SVG Export Plug-In . SVG Version: 6.00 Build 0)  -->

<svg version="1.1" id="_x32_" xmlns="http://www.w3.org/2000/svg" xmlns:xlink="http://www.w3.org/1999/xlink" x="0px" y="0px" viewBox="0 0 512 512" style="width: 256px; height: 256px; opacity: 1;" xml:space="preserve">
<style type="text/css">
	.st0{fill:#4B4B4B;}
</style>
<g>
	<path class="st0" d="M246.141,258.366L38.008,133.523c-2.46,5.802-3.798,12.116-3.798,18.62v208.084
		c0,16.773,8.802,32.311,23.182,40.938l174.052,104.408c5.828,3.488,12.206,5.621,18.717,6.428V265.472
		C250.161,262.556,248.635,259.865,246.141,258.366z M91.703,266.76c-13.578-5.576-23.848-21.86-22.926-36.365
		c0.924-14.513,12.686-21.747,26.271-16.17c13.583,5.576,23.849,21.852,22.926,36.365C117.056,265.095,105.29,272.344,91.703,266.76
		z M197.802,435.307c-13.59-5.576-23.852-21.867-22.934-36.372c0.928-14.505,12.686-21.739,26.275-16.17
		c13.583,5.576,23.853,21.86,22.926,36.372C223.147,433.634,211.385,440.883,197.802,435.307z" style="fill: rgb(75, 75, 75);"></path>
	<path class="st0" d="M454.608,111.204L280.561,6.797C272.996,2.261,264.507,0,256,0c-8.504,0-16.995,2.268-24.557,6.797
		L57.392,111.204c-5.342,3.203-9.912,7.37-13.552,12.192l207.903,124.707c2.622,1.575,5.896,1.575,8.518,0l207.903-124.707
		C464.525,118.574,459.955,114.407,454.608,111.204z M157.712,130.314c-10.96,7.61-28.457,7.422-39.077-0.452
		c-10.621-7.86-10.346-20.413,0.617-28.031c10.96-7.626,28.457-7.422,39.082,0.437C168.954,110.134,168.675,122.688,157.712,130.314
		z M273.154,207.127c-10.968,7.625-28.46,7.429-39.085-0.445c-10.621-7.859-10.342-20.413,0.614-28.031
		c10.964-7.626,28.461-7.422,39.081,0.438C284.389,186.955,284.11,199.509,273.154,207.127z M276.473,55.873
		c-10.96,7.626-28.456,7.43-39.081-0.437c-10.621-7.86-10.342-20.42,0.614-28.038c10.967-7.626,28.464-7.422,39.084,0.437
		C287.716,35.702,287.433,48.255,276.473,55.873z M391.909,132.702c-10.961,7.619-28.457,7.415-39.082-0.444
		c-10.62-7.859-10.342-20.42,0.622-28.046c10.956-7.611,28.456-7.422,39.077,0.452C403.147,112.523,402.868,125.076,391.909,132.702
		z" style="fill: rgb(75, 75, 75);"></path>
	<path class="st0" d="M473.996,133.523L265.864,258.366c-2.494,1.499-4.02,4.19-4.02,7.106V512
		c6.511-0.799,12.889-2.939,18.718-6.428l174.047-104.408c14.385-8.627,23.182-24.165,23.182-40.938V152.143
		C477.79,145.64,476.453,139.325,473.996,133.523z M309.549,436.158c-12.06,6.57-21.83,2.125-21.83-9.931
		c0-12.049,9.77-27.15,21.83-33.72c12.052-6.57,21.826-2.124,21.826,9.924C331.374,414.487,321.601,429.588,309.549,436.158z
		 M309.549,314.292c-12.06,6.571-21.83,2.125-21.83-9.931c0-12.056,9.77-27.149,21.83-33.727c12.052-6.57,21.826-2.118,21.826,9.931
		C331.374,292.62,321.601,307.722,309.549,314.292z M370.482,342.014c-12.052,6.571-21.829,2.125-21.829-9.931
		c0-12.056,9.777-27.157,21.829-33.728c12.056-6.571,21.826-2.125,21.826,9.931S382.538,335.443,370.482,342.014z M431.416,369.736
		c-12.056,6.57-21.826,2.125-21.826-9.931c0-12.056,9.769-27.157,21.826-33.728c12.056-6.571,21.829-2.125,21.829,9.931
		C453.245,348.065,443.472,363.165,431.416,369.736z M431.416,247.869c-12.056,6.571-21.826,2.117-21.826-9.931
		c0-12.056,9.769-27.156,21.826-33.728c12.056-6.57,21.829-2.125,21.829,9.931C453.245,226.198,443.472,241.291,431.416,247.869z" style="fill: rgb(75, 75, 75);"></path>
</g>
</svg>
